<?xml version="1.0" encoding="utf-8"?>
<svg viewBox="0 0 24 24" xmlns="http://www.w3.org/2000/svg">
  <defs>
    <style>
            .cls-1,.cls-2{fill:none;}.cls-2{stroke:#000;stroke-linecap:round;stroke-linejoin:round;}</style>
  </defs>
  <g data-name="Layer 2" id="Layer_2">
    <g id="Workspace">
      <rect class="cls-2" height="3" width="3" x="8" y="8" style="stroke: rgb(0, 64, 255);"/>
      <rect class="cls-2" height="2" width="2" x="14" y="14" style="stroke: rgb(0, 64, 255);"/>
      <line class="cls-2" x1="8" x2="8" y1="13" y2="16" style="stroke: rgb(0, 64, 255);"/>
      <polyline class="cls-2" points="10 13 10 16 12 16 12 13 12 12 13 12 16 12" style="stroke: rgb(0, 64, 255);"/>
      <polyline class="cls-2" points="16 10 13 10 13 8 16 8" style="stroke: rgb(0, 64, 255);"/>
      <path class="cls-2" d="M8,5H6A1,1,0,0,0,5,6V8" style="stroke: rgb(0, 64, 255);"/>
      <path class="cls-2" d="M16,5h2a1,1,0,0,1,1,1V8" style="stroke: rgb(0, 64, 255);"/>
      <path class="cls-2" d="M19,16v2a1,1,0,0,1-1,1H16" style="stroke: rgb(0, 64, 255);"/>
      <path class="cls-2" d="M8,19H6a1,1,0,0,1-1-1V16" style="stroke: rgb(0, 64, 255);"/>
    </g>
  </g>
</svg>